<?xml version="1.0" encoding="UTF-8"?>
<!DOCTYPE svg PUBLIC "-//W3C//DTD SVG 1.1//EN" "http://www.w3.org/Graphics/SVG/1.1/DTD/svg11.dtd">
<!-- Creator: CorelDRAW -->
<svg xmlns="http://www.w3.org/2000/svg" xml:space="preserve" width="15in" height="15in" version="1.1" style="shape-rendering:geometricPrecision; text-rendering:geometricPrecision; image-rendering:optimizeQuality; fill-rule:evenodd; clip-rule:evenodd"
viewBox="0 0 15000 15000"
 xmlns:xlink="http://www.w3.org/1999/xlink"
 xmlns:xodm="http://www.corel.com/coreldraw/odm/2003">
 <defs>
  <style type="text/css">
   <![CDATA[
    .fil1 {fill:black;fill-rule:nonzero}
    .fil2 {fill:#5D8AB2;fill-rule:nonzero}
    .fil0 {fill:white;fill-rule:nonzero}
   ]]>
  </style>
 </defs>
 <g id="Layer_x0020_1">
  <metadata id="CorelCorpID_0Corel-Layer"/>
  <path class="fil0" d="M8357.5 3492.5l4392.5 0 0 8015 -10500 0 0 -8015 5897.5 0c-154.51,47.07 -304.98,102.46 -436.8,199.83 -20.17,14.9 -48.28,19.16 -72.87,27.91 -404.6,144.12 -809.67,286.98 -1213.5,433.2 -87.69,30.45 -172.87,68.86 -253.78,114.27 -379.97,219.43 -676.91,532.89 -942.43,873.74 -167.53,215.07 -305.92,452.93 -455.89,681.55 -97.17,148.13 -201.89,292.58 -284.58,448.57 -89.26,173.11 -200.09,334.49 -329.2,480.18 -168.09,185.94 -354.79,344.96 -597.39,426.36 -38.48,12.91 -75.64,29.86 -113.02,45.87 -369.87,158.53 -672.88,424.88 -1013.96,629.91 -24.89,15.41 -46.51,35.72 -63.45,59.64 -54.17,76.25 -108.84,153 -65.04,255.69 44.5,104.3 121.38,140.28 233.84,140.48 542.19,0.95 1084.43,4.38 1626.49,15.19 149.91,2.99 304.6,15.77 447.63,56.95 228.5,65.79 416.18,195.03 484.76,443.85 61.76,224.08 126.22,447.52 182.31,673.02 108.09,434.53 52.64,844.85 -179.19,1233.28 -115.93,194.25 -166.33,414.18 -194.41,638.2 -6.96,55.5 6.05,108.85 66.68,110.13 61.31,1.3 67.99,-55.01 75.11,-108.03 6.46,-68.98 22.9,-136.68 48.53,-201.02 71.58,-158.16 151.87,-312.43 230.52,-467.33 167.94,-330.72 194.77,-691.44 175.63,-1047.23 -20.38,-378.73 -88.7,-756.17 -279.19,-1096.97 -19.01,-32.56 -35.03,-67.08 -47.56,-102.61 -26.42,-80.1 -32.07,-159.33 25.57,-231.18 9.59,-10.74 16.37,-23.79 19.67,-37.83 28.87,-187.66 21.53,-360.33 -139.55,-501.04 -192.96,-164.66 -356.43,-362.57 -481.22,-583.27 -78.34,-141.56 -83.3,-251.01 25.09,-384.61 167.39,-206.32 216.02,-197.59 393.8,-13.67 111.13,114.96 210.01,241.78 314.13,363.5 221.63,259.09 518.32,312.31 836.84,304.25 17.45,-1.63 33.87,-9.26 46.32,-21.63 96.8,-98.18 210.96,-183.47 223.83,-339.58 6.62,-80.32 52.72,-101.96 127.74,-73.48 31.86,12.1 63.06,32.5 95.63,34.96 124.82,9.39 250.02,14.78 375.17,18.24 89.82,2.48 174.06,-15.22 232.35,-93.35 91.89,-123.16 188.71,-243.11 273.1,-371.23 60.94,-92.52 43.33,-207.81 -45.26,-271.5 -87.93,-64.71 -185.03,-116.85 -287.49,-154.34 -376.21,-131.34 -735.92,128.83 -736.57,524.67 -0.1,61.09 -1.9,122.44 -7.86,183.19 -8.04,81.97 -61.41,127.31 -143.83,127.73 -61.24,0.31 -122.5,0.07 -183.74,0.06 -298.34,-0.03 -457.59,-131.89 -514.39,-425.76 -18.72,-112.85 -74.91,-216.43 -159.22,-293.78 -104.06,-93.34 -209.61,-185.01 -316.65,-275.02 -79.85,-67.55 -87.88,-131.89 -18.48,-214.22 29.95,-35.28 63.11,-68.55 98.15,-98.74 96.17,-83.57 194.03,-165.19 291.23,-247.57 63.42,30.26 125.18,81.72 190.57,86.86 207.94,16.32 417.26,14.56 625.99,21.44 121.94,4.02 245.32,0.95 365.35,19.01 277.47,41.73 554.22,71.87 828.9,-6.57 320.67,-91.57 615.38,-58.42 877.87,160.22 -8.66,177.07 -57.57,350.98 -8.79,532.35 32.74,121.76 42.22,252.16 45.23,379.09 7.93,334.87 -109,645.13 -205.09,958.8 -80.2,261.81 -177.35,518.93 -329.88,746.26 -187.9,281.44 -424.16,528.78 -696.53,729.3 -159.16,117.29 -322.21,229.32 -483.84,343.26 -72.59,51.17 -84.93,125.7 -64.81,201.6 19.66,74.18 84.47,105.04 157.05,97.45 85.65,-6.75 170.76,-23.08 253.14,-48.08 73.04,-24.55 138.8,-71.04 207.41,-108.5 173.17,-94.57 349.48,-183.96 518.43,-285.57 263.84,-158.69 524.15,-323.4 782.42,-491.02 60.72,-39.41 107.32,-100.59 160.42,-151.75 5.55,12.47 9,25.81 10.08,39.4 -16.47,150.43 -36.91,300.46 -51.15,451.09 -17.08,180.61 -41.39,359.02 -143.71,514.67 -272,413.72 -444.63,876.98 -657.39,1320.09 -33.84,70.49 -31.93,158.14 -51.05,262.43 67.71,-27.51 104.46,-42.96 141.6,-57.44 496.11,-193.39 991.25,-389.37 1488.86,-578.85 269.01,-102.43 537.37,-212.06 814.67,-286.04 528.02,-140.87 1062.39,-257.87 1593.81,-386.09 217.33,-52.44 433.83,-108.29 650.7,-162.59 65.3,33.8 132.61,14.24 159.14,-39.94 20.47,-41.82 13.09,-119.48 -14.32,-158.35 -81.31,-113.17 -170.87,-221.14 -267.28,-321.52 -175.33,-185.93 -351.63,-371.52 -536.92,-547.35 -192.4,-182.57 -223.77,-402.42 -188.27,-648.35 19.22,-133.2 28.41,-273.04 -46.81,-390.89 -137.5,-215.43 -286.76,-423.38 -432.11,-633.77 -64.31,-93.09 -138.87,-179.98 -195.35,-277.46 -240.22,-414.63 -444.48,-852.74 -762.09,-1217.21 -154.06,-176.8 -104.12,-530.58 130.18,-632.21 75.99,-32.96 146.7,-96.27 244.5,-58.3 63.23,25.63 130.18,42.02 198.08,48.47 106.48,8.52 213.95,-18.86 260.72,-120.83 47.95,-104.56 35.06,-227.03 -46.4,-310.52 -103.91,-108.61 -220.59,-205.3 -346.92,-286.93 -297.3,-187.03 -628.69,-281.65 -977.95,-310 -115.95,-9.41 -232.97,-6.98 -349.52,-7.58 -244.51,-1.27 -477.19,-33.27 -687.88,-178.97 -74.15,-51.28 -180.96,-55.22 -272.76,-81.13 -17.56,-4.96 -34.65,-11.56 -51.95,-17.4z"/>
  <path class="fil1" d="M8357.5 3492.5c17.3,5.84 34.39,12.44 51.94,17.4 91.79,25.91 198.61,29.86 272.75,81.13 210.69,145.7 443.37,177.7 687.88,178.97 116.55,0.6 233.56,-1.83 349.52,7.58 349.26,28.35 680.65,122.96 978.02,310.02 126.26,81.61 242.94,178.3 346.92,286.98 81.46,83.49 94.35,205.96 46.4,310.52 -46.77,101.98 -154.24,129.35 -260.72,120.83 -67.96,-6.52 -134.91,-22.91 -198.2,-48.37 -97.8,-37.98 -168.51,25.33 -244.5,58.29 -234.3,101.64 -284.24,455.41 -130.18,632.21 317.6,364.46 521.86,802.58 762.09,1217.21 56.48,97.48 131.04,184.37 195.35,277.46 145.35,210.38 294.6,418.34 432.11,633.77 75.22,117.85 66.04,257.69 46.81,390.89 -35.5,245.93 -4.13,465.78 188.27,648.35 185.3,175.83 361.59,361.42 536.92,547.35 96.47,100.22 186.02,208.19 267.26,321.2 27.41,38.87 34.79,116.53 14.32,158.35 -26.53,54.19 -93.84,73.74 -159.13,39.95 -29.8,-27.23 -62.18,-52.18 -89.01,-82.1 -137.41,-153.27 -275.56,-305.96 -409.06,-462.6 -84.62,-99.3 -159.04,-207.25 -242.55,-307.56 -106.08,-127.41 -223.62,-245.89 -322.24,-378.6 -43.24,-63.28 -68.52,-137.56 -72.74,-214.26 -10.1,-156.57 1.23,-314.41 -2.26,-471.58 -1.26,-56.72 -6.37,-120.7 -33.22,-168.04 -60.64,-112.38 -132.37,-219.48 -213.61,-318.3 -138.37,-161.15 -284.05,-314.04 -380.76,-507.48 -138.98,-277.97 -286.33,-551.76 -431.05,-826.84 -72.19,-137.21 -202.61,-152.73 -304.43,-35.82 -27.37,30.22 -50.16,64.42 -67.34,101.41 -45.22,103.74 -85.65,209.58 -127.65,314.72 -85.07,212.91 -162.51,429.25 -256.96,637.9 -93.34,206.17 -201.17,406 -307.32,606.12 -176.78,333.23 -357.3,664.48 -536.25,996.56 -53.09,51.17 -99.7,112.34 -160.42,151.75 -258.27,167.61 -518.59,332.33 -782.42,491.02 -168.95,101.62 -345.26,191.01 -518.44,285.57 -68.61,37.47 -134.36,83.95 -207.41,108.5 -82.29,24.94 -167.41,41.27 -253.24,47.91 -72.58,7.59 -137.39,-23.28 -157.06,-97.45 -20.11,-75.89 -7.78,-150.43 64.82,-201.6 161.63,-113.93 324.68,-225.96 483.84,-343.26 272.56,-200.41 508.81,-447.76 696.83,-729.06 152.52,-227.33 249.68,-484.45 329.88,-746.26 96.08,-313.66 213.01,-623.93 205.09,-958.8 -3.01,-126.93 -12.48,-257.33 -45.23,-379.09 -48.78,-181.38 0.13,-355.29 8.8,-532.36 61.54,-15.93 123.43,-30.58 184.55,-48 252.32,-71.91 447.66,-225.98 620.18,-418.75 129.83,-145.08 267.33,-283.96 408.9,-417.67 125.14,-118.2 280.84,-181.39 448.12,-222.16 55.38,-13.5 126.16,-45.75 150.41,-90.72 99.74,-184.99 54.48,-348.89 -146.62,-426.63 -168.7,-63.97 -346.98,-99.9 -527.06,-105.69 -224.44,-7.39 -450.28,28.39 -675.57,44.81 -6.02,0.76 -12.03,1.12 -18.03,1.12 -14.28,0 -28.52,-1.99 -42.25,-5.86 -85.97,-26.21 -170.88,-57.67 -253.65,-93.1 -211.02,-99.24 -423.28,-114.82 -642.41,-30.78 -108.46,41.59 -216.07,88.86 -328.27,116.52 -347.86,87.39 -690.54,205.48 -1019.34,350.58 -319.06,139.36 -561.15,370.26 -806.4,602.37 -101.51,96.07 -178.67,205.31 -201.93,347.59 -6.44,39.4 -25.73,76.7 -39.12,114.97 -97.19,82.39 -195.06,164.01 -291.23,247.57 -35.34,30.5 -68.51,63.77 -98.47,99.03 -69.41,82.33 -61.37,146.67 18.48,214.22 106.74,90.29 212.3,181.97 316.67,275.02 84.3,77.36 140.5,180.94 159.22,293.84 56.8,293.86 216.04,425.73 514.39,425.76 61.25,0 122.49,0.25 183.74,-0.06 82.43,-0.42 135.8,-45.76 143.83,-127.73 5.96,-60.75 7.75,-122.1 7.86,-183.19 0.65,-395.83 360.36,-656.02 736.57,-524.67 102.46,37.44 199.56,89.59 287.5,154.28 88.58,63.69 106.2,178.97 45.26,271.5 -84.39,128.12 -181.21,248.07 -273.1,371.23 -58.29,78.13 -142.53,95.83 -232.35,93.35 -125.15,-3.46 -250.35,-8.85 -375.17,-18.24 -32.57,-2.45 -63.78,-22.86 -95.64,-34.96 -75,-28.48 -121.11,-6.84 -127.74,73.48 -12.87,156.11 -127.04,241.4 -223.83,339.58 -12.46,12.39 -28.88,20.02 -46.36,21.54 -318.52,8.06 -615.21,-45.17 -836.84,-304.25 -104.12,-121.72 -203,-248.54 -314.13,-363.5 -177.78,-183.92 -226.41,-192.65 -393.8,13.67 -108.4,133.6 -103.44,243.05 -25.09,384.61 124.83,220.81 288.03,418.98 481.18,583.51 161.08,140.7 168.42,313.38 139.55,501.04 -3.24,13.92 -10.02,26.96 -19.61,37.74 -57.63,71.85 -51.98,151.08 -25.57,231.18 12.53,35.49 28.55,70.01 47.56,102.56 190.49,340.81 258.81,718.24 279.19,1096.97 19.14,355.79 -7.69,716.51 -175.63,1047.24 -78.65,154.89 -158.94,309.17 -230.52,467.32 -25.62,64.35 -42.06,132.05 -48.52,200.98 -7.12,53.02 -13.81,109.32 -75.11,108.03 -60.63,-1.28 -73.63,-54.63 -66.68,-110.13 28.08,-224.02 78.47,-443.95 194.41,-638.2 231.82,-388.43 287.27,-798.76 179.18,-1233.28 -56.09,-225.51 -120.56,-448.95 -182.31,-673.02 -68.58,-248.82 -256.26,-378.06 -484.76,-443.85 -143.03,-41.18 -297.72,-53.96 -447.63,-56.94 -542.06,-10.81 -1084.3,-14.24 -1626.49,-15.19 -112.46,-0.2 -189.35,-36.18 -233.84,-140.48 -43.81,-102.69 10.87,-179.44 65.04,-255.69 16.94,-23.87 38.56,-44.19 63.47,-59.6 341.08,-205.02 644.09,-471.37 1013.96,-629.91 37.37,-16.02 74.54,-32.97 113.02,-45.87 242.6,-81.39 429.31,-240.42 597.35,-426.26 129.13,-145.76 239.96,-307.16 329.09,-480.26 82.69,-155.99 187.41,-300.44 284.58,-448.57 149.97,-228.61 288.36,-466.48 455.89,-681.54 265.52,-340.85 562.46,-654.31 942.43,-873.75 81.04,-45.41 166.22,-83.82 253.93,-114.29 403.84,-146.22 808.9,-289.07 1213.5,-433.2 24.59,-8.76 52.7,-13.02 72.87,-27.91 131.8,-97.36 282.28,-152.74 436.78,-199.82l210 0z"/>
  <path class="fil2" d="M8744.89 8566.14c178.95,-332.08 359.48,-663.33 536.26,-996.56 106.16,-200.12 213.98,-399.94 307.33,-606.12 94.45,-208.65 171.89,-425 256.96,-637.9 42,-105.14 82.43,-210.98 127.65,-314.71 17.16,-36.99 39.95,-71.2 67.3,-101.43 101.81,-116.91 232.23,-101.39 304.42,35.82 144.72,275.07 292.07,548.87 431.05,826.84 96.72,193.44 242.39,346.33 380.76,507.48 81.27,98.83 153,205.93 213.75,318.39 26.85,47.33 31.96,111.32 33.22,168.04 3.5,157.19 -7.84,315.02 2.26,471.58 4.1,76.62 29.39,150.9 72.72,214.33 98.62,132.72 216.16,251.2 322.24,378.6 83.51,100.31 157.93,208.26 242.55,307.56 133.49,156.65 271.66,309.33 409.06,462.61 26.83,29.92 59.2,54.86 89.01,82.1 -216.89,54.29 -433.39,110.14 -650.72,162.57 -531.42,128.22 -1065.79,245.22 -1593.81,386.09 -277.3,73.98 -545.66,183.61 -814.67,286.04 -497.61,189.47 -992.74,385.45 -1488.86,578.85 -37.14,14.47 -73.89,29.93 -141.6,57.44 19.12,-104.29 17.2,-191.94 51.05,-262.42 212.76,-443.11 385.39,-906.37 657.39,-1320.09 102.32,-155.63 126.63,-334.05 143.71,-514.67 14.24,-150.62 34.68,-300.65 51.15,-451.08 -1.12,-13.58 -4.57,-26.93 -10.18,-39.33l-0 0z"/>
  <path class="fil2" d="M5521.07 5381.95c13.39,-38.26 32.68,-75.56 39.12,-114.97 23.27,-142.28 100.42,-251.52 201.93,-347.59 245.24,-232.11 487.34,-463.02 806.4,-602.37 329.14,-145.43 671.83,-263.52 1019.91,-350.73 112.2,-27.65 219.82,-74.93 328.27,-116.52 219.13,-84.04 431.39,-68.46 642.41,30.78 82.56,35.25 167.46,66.7 253.28,92.97 13.88,3.81 28.13,5.8 42.41,5.8 6,0 12.01,-0.36 17.94,-1.04 225.29,-16.42 451.13,-52.2 675.57,-44.81 180.16,5.72 358.44,41.65 526.94,105.54 201.1,77.74 246.35,241.64 146.61,426.62 -24.24,44.97 -95.03,77.23 -150.41,90.72 -167.28,40.77 -322.98,103.96 -448.12,222.16 -141.53,133.7 -279.03,272.58 -408.86,417.66 -172.52,192.78 -367.85,346.84 -620.18,418.75 -61.11,17.42 -123.01,32.07 -184.54,48 -262.49,-218.64 -557.2,-251.79 -877.87,-160.22 -274.68,78.44 -551.43,48.3 -828.9,6.57 -120.03,-18.06 -243.41,-14.99 -365.35,-19.01 -208.73,-6.88 -418.05,-5.12 -625.98,-21.44 -65.39,-5.14 -127.15,-56.61 -190.57,-86.87z"/>
 </g>
</svg>
